<svg width="176" height="24" viewBox="0 0 176 24" fill="none" xmlns="http://www.w3.org/2000/svg">
<path d="M10.0607 11.1089C10.9961 11.1089 11.773 10.8552 12.3596 10.3637C12.9462 9.8881 13.2633 9.0795 13.2792 7.96967V7.93796C13.2792 6.92325 12.978 6.14637 12.3755 5.5756C11.773 5.00483 10.9485 4.71944 9.90213 4.71944H6.30309V11.1089H10.0607ZM6.30309 22.9841H0.896615V0.565487H9.99726C12.8353 0.613051 14.9281 1.23139 16.2758 2.4205C17.6393 3.6096 18.321 5.41705 18.321 7.87454V7.96967C18.2893 10.4113 17.5758 12.2346 16.1489 13.4237C14.7378 14.6287 12.8511 15.2312 10.4888 15.2629H6.30309V22.9841ZM36.6333 22.9366H31.2268V14.7872C31.1951 12.8212 30.3072 11.8224 28.5632 11.8065C27.6436 11.8065 26.8192 12.187 26.074 12.9481V22.9366H20.6675V0.517922H26.074V8.47702C27.0094 7.68428 28.4205 7.28791 30.3231 7.28791C34.5246 7.31962 36.6333 9.69784 36.6333 14.4384V22.9366ZM45.5595 20.3364C46.495 20.3364 47.0974 19.9242 47.3828 19.068V16.8959L45.5437 16.9118C44.307 16.9118 43.6728 17.4508 43.6728 18.5448C43.6887 19.7498 44.3229 20.3364 45.5595 20.3364ZM43.5618 23.5232C40.375 23.5232 38.7578 21.906 38.6944 18.6875C38.6944 15.4848 40.6287 13.8676 44.4656 13.8359L47.367 13.8676C47.3194 12.2187 46.0193 11.3784 43.4667 11.3467C41.9288 11.3626 40.6604 11.4894 39.6616 11.7273V7.68428C40.819 7.44646 42.452 7.33548 44.5607 7.33548C49.9196 7.36719 52.5991 9.77711 52.6308 14.5653V22.9683H47.9536L47.6207 22.1121C46.5425 23.0476 45.1949 23.5232 43.5618 23.5232ZM61.1131 23H55.7066V7.77941H60.4472L60.8911 8.76241C61.7314 7.85869 62.8888 7.3989 64.395 7.36719C65.0609 7.36719 65.9488 7.46232 67.0745 7.63672L67.0586 12.1236C65.9805 11.9651 64.9975 11.8858 64.1255 11.8858C62.7303 11.8858 61.7155 12.3297 61.1131 13.2017V23ZM95.9143 22.9683H90.5237V14.8665C90.492 12.8847 89.6041 11.8858 87.8601 11.8541C86.782 11.8541 85.9575 12.3456 85.4026 13.2969V22.9683H79.9803V14.8031C79.9644 12.8529 79.0924 11.8699 77.3484 11.8541C76.3971 11.8541 75.5726 12.2346 74.875 12.9798V22.9683H69.4685V7.7477H74.336L74.6531 8.68313C75.8897 7.77941 77.3959 7.33548 79.14 7.33548C81.6767 7.33548 83.4049 8.11236 84.3245 9.66613C85.355 8.11236 87.1466 7.33548 89.6834 7.33548C93.7264 7.33548 95.8192 9.71369 95.9143 14.4543V22.9683ZM104.698 20.3364C105.633 20.3364 106.236 19.9242 106.521 19.068V16.8959L104.682 16.9118C103.445 16.9118 102.811 17.4508 102.811 18.5448C102.827 19.7498 103.461 20.3364 104.698 20.3364ZM102.7 23.5232C99.5133 23.5232 97.8962 21.906 97.8327 18.6875C97.8327 15.4848 99.767 13.8676 103.604 13.8359L106.505 13.8676C106.458 12.2187 105.158 11.3784 102.605 11.3467C101.067 11.3626 99.7987 11.4894 98.7999 11.7273V7.68428C99.9573 7.44646 101.59 7.33548 103.699 7.33548C109.058 7.36719 111.737 9.77711 111.769 14.5653V22.9683H107.092L106.759 22.1121C105.681 23.0476 104.333 23.5232 102.7 23.5232Z" fill="#1E1E1E"/>
<path d="M124.992 23.333C121.789 23.333 119.062 22.2865 116.827 20.1937C114.575 18.1009 113.45 15.2787 113.45 11.7114C113.45 8.39775 114.544 5.63902 116.732 3.41935C118.904 1.19968 121.884 0.0898434 125.658 0.0898434C127.132 0.0898434 128.417 0.184972 129.526 0.359375V5.00483C128.591 4.81457 127.418 4.71944 125.975 4.71944C123.819 4.71944 122.091 5.29021 120.79 6.43176C119.475 7.58915 118.824 9.33318 118.824 11.7114C118.856 13.8835 119.522 15.58 120.838 16.8325C122.17 18.0692 123.819 18.7034 125.832 18.7034C127.227 18.7034 128.417 18.6082 129.384 18.4021V23.0476C128.29 23.2061 126.831 23.3012 124.992 23.333ZM137.898 20.3364C138.833 20.3364 139.436 19.9242 139.721 19.068V16.8959L137.882 16.9118C136.645 16.9118 136.011 17.4508 136.011 18.5448C136.027 19.7498 136.661 20.3364 137.898 20.3364ZM135.9 23.5232C132.713 23.5232 131.096 21.906 131.033 18.6875C131.033 15.4848 132.967 13.8676 136.804 13.8359L139.705 13.8676C139.658 12.2187 138.358 11.3784 135.805 11.3467C134.267 11.3626 132.999 11.4894 132 11.7273V7.68428C133.157 7.44646 134.79 7.33548 136.899 7.33548C142.258 7.36719 144.937 9.77711 144.969 14.5653V22.9683H140.292L139.959 22.1121C138.881 23.0476 137.533 23.5232 135.9 23.5232ZM153.451 23H148.045V7.77941H152.785L153.229 8.76241C154.07 7.85869 155.227 7.3989 156.733 7.36719C157.399 7.36719 158.287 7.46232 159.413 7.63672L159.397 12.1236C158.319 11.9651 157.336 11.8858 156.464 11.8858C155.068 11.8858 154.054 12.3297 153.451 13.2017V23ZM170.226 13.614C170.226 12.3139 169.528 11.6797 168.133 11.6797C166.769 11.6955 166.04 12.3456 165.977 13.6298L170.226 13.614ZM169.29 23.3012C163.456 23.2695 160.491 20.6693 160.396 15.4848C160.427 10.0625 162.996 7.30377 168.101 7.2562C172.984 7.31962 175.41 9.93566 175.41 15.1043C175.41 16.0398 175.394 16.6105 175.347 16.8008H165.834C166.072 18.2911 167.499 19.0363 170.131 19.0363C172.065 19.0363 173.492 18.8936 174.411 18.6082V22.889C172.937 23.1585 171.24 23.2854 169.29 23.3012Z" fill="#0474C4"/>
</svg>
